<?xml version="1.0" encoding="UTF-8"?>
<svg version="1.1" xmlns="http://www.w3.org/2000/svg" width="1555" height="698">
<path d="M0 0 C0.91104492 0.23106445 1.82208984 0.46212891 2.76074219 0.70019531 C28.50020478 7.40274125 49.58596583 17.83440124 70.33984375 34.33203125 C74.91564368 37.96137875 79.59542839 41.43224323 84.3125 44.875 C91.10208454 49.83990118 97.82149508 54.88666422 104.5 60 C111.11938274 65.0666281 117.77503207 70.07435459 124.5 75 C132.12740017 80.5866242 139.65644565 86.29276338 147.1640625 92.0390625 C152.89902727 96.42064326 158.67759563 100.73542958 164.5 105 C171.22497458 109.92565028 177.88038993 114.93366232 184.5 120 C194.24542339 127.4553294 204.10033874 134.75129406 214 142 C224.80253607 149.90980675 235.53121949 157.90107083 246.16357422 166.03857422 C251.89860482 170.42045474 257.67752405 174.73513684 263.5 179 C272.14171707 185.33277816 280.6783774 191.79656268 289.1796875 198.31640625 C292.02126615 200.49546646 294.87291542 202.65600281 297.7578125 204.77734375 C329.94539757 228.56919229 347.99202558 264.34991209 354.56420898 303.34790039 C356.02859341 313.16103407 356.36136758 322.78214581 356.3125 332.6875 C356.31034485 333.47714142 356.3081897 334.26678284 356.30596924 335.08035278 C356.1381491 373.4786674 344.54190067 410.12569683 320 440 C319.54367187 440.55558594 319.08734375 441.11117188 318.6171875 441.68359375 C312.24166995 449.3081162 305.04324769 455.48442464 297.10791016 461.41748047 C294.76071513 463.17964379 292.43244625 464.96513511 290.10546875 466.75390625 C280.86812676 473.84467578 271.55947304 480.82886033 262.1652832 487.71020508 C256.22392687 492.07204964 250.35284197 496.52025878 244.5 501 C237.11440426 506.65290465 229.67032996 512.21433838 222.16625977 517.70874023 C216.20041389 522.08782606 210.31118241 526.56077261 204.4375 531.0625 C197.3110338 536.52195656 190.10808763 541.84714321 182.80615234 547.06884766 C176.06401342 551.90970043 169.47399729 556.93963711 162.88671875 561.98828125 C157.1365304 566.3894518 151.34246346 570.72220925 145.5 575 C138.77494119 579.92552389 132.11946776 584.93348655 125.5 590 C118.11358208 595.65353395 110.66805534 601.21470194 103.1640625 606.7109375 C97.22326928 611.07278235 91.35303899 615.5212741 85.5 620 C49.10849016 647.78841894 10.18537322 674.99214285 -38.10058594 669.77294922 C-50.88189121 667.93267494 -61.85119566 662.8306422 -72 655 C-73.03125 654.236875 -74.0625 653.47375 -75.125 652.6875 C-87.16051117 641.43691347 -94.73340782 626.4173712 -100 611 C-100.22284668 610.36191406 -100.44569336 609.72382812 -100.67529297 609.06640625 C-110.1553066 580.92588086 -109.78204919 548.1575013 -112.25 518.84912109 C-113.26503545 506.85956312 -114.37564825 494.92340612 -116 483 C-117.16395798 483.06892456 -118.32791595 483.13784912 -119.52714539 483.2088623 C-130.65441289 483.84509732 -141.75075711 484.18316256 -152.89453125 484.28125 C-154.56013372 484.2987906 -156.22573224 484.31670994 -157.8913269 484.3349762 C-161.39525808 484.37298155 -164.89920233 484.40893631 -168.40316772 484.44363403 C-173.87478387 484.49902748 -179.34619011 484.56773594 -184.81762695 484.63842773 C-215.35427442 485.02722776 -215.35427442 485.02722776 -230.15785217 485.00686646 C-235.18785102 485.00313522 -240.21749782 485.02682147 -245.24740601 485.05517578 C-247.52348312 485.06002172 -249.7996392 485.05063943 -252.07559204 485.02636719 C-255.18053291 484.99390661 -258.28180455 485.00898715 -261.38671875 485.03515625 C-262.7137532 485.00126549 -262.7137532 485.00126549 -264.06759644 484.96669006 C-267.84313405 485.04150076 -270.10525539 485.23770603 -273.03970337 487.73776245 C-274.81159416 489.75738884 -276.40196746 491.84215038 -278 494 C-288.26429287 504.79496907 -303.65994088 509.7924623 -318.25 510.1875 C-334.9619625 509.90084541 -349.06447061 503.62842874 -361.1875 492.25 C-373.28044412 479.54630113 -377.47724245 464.49956425 -377.2109375 447.359375 C-376.67498056 432.07467721 -369.70542849 419.5725597 -359 409 C-358.45859375 408.43667969 -357.9171875 407.87335938 -357.359375 407.29296875 C-347.16597638 397.53716552 -332.29381223 393.12989796 -318.5 392.625 C-301.32506078 393.2536581 -287.00473679 399.82164098 -275 412 C-273.11661928 414.32189782 -273.11661928 414.32189782 -270.00550842 414.20254517 C-268.71341965 414.18033905 -267.42133087 414.15813293 -266.09008789 414.13525391 C-265.37386796 414.12580655 -264.65764803 414.1163592 -263.91972446 414.10662556 C-261.52045611 414.07271332 -259.12168194 414.02451201 -256.72265625 413.9765625 C-255.02462221 413.9500836 -253.32657245 413.92459601 -251.62850952 413.90003967 C-247.9990489 413.84603632 -244.36974533 413.786293 -240.740448 413.72225952 C-235.0596344 413.62296287 -229.37866285 413.54124227 -223.69750977 413.46411133 C-222.75498446 413.45127263 -221.81245916 413.43843393 -220.84137249 413.42520618 C-218.9349221 413.39929406 -217.02847087 413.37344345 -215.12201881 413.34765434 C-212.24976601 413.30848402 -209.37752894 413.26831294 -206.5052948 413.22779846 C-175.18370151 412.7862739 -175.18370151 412.7862739 -160.131073 412.71087646 C-157.70044984 412.69549316 -155.26986061 412.67262511 -152.83938599 412.6416626 C-124.35334531 412.28601419 -99.69026469 417.67922546 -78.23828125 437.796875 C-57.20965045 458.49521317 -50.25638664 485.69196929 -47 514 C-46.71139299 516.44642805 -46.42085695 518.8926238 -46.13043213 521.33883667 C-43.7564998 541.35501922 -41.47799986 561.38234066 -39.28320312 581.41894531 C-38.85958029 585.27975615 -38.42978756 589.13987103 -38 593 C-37.14664062 593.1134375 -36.29328125 593.226875 -35.4140625 593.34375 C-31.83270271 594.03215783 -28.75446415 595.13871702 -25.375 596.5 C-13.93437526 601.08691715 -1.57725615 601.97231824 10.109375 597.42578125 C15.86923477 594.58476934 20.90838628 590.86952667 26 587 C26.76489746 586.42137207 27.52979492 585.84274414 28.31787109 585.24658203 C32.75031395 581.88835677 37.16896879 578.51254293 41.58203125 575.12890625 C47.3964496 570.68173204 53.28367119 566.33836436 59.18603516 562.0090332 C64.14687966 558.36910827 69.08427639 554.70061473 74 551 C79.69972739 546.70917798 85.43500053 542.46976112 91.1875 538.25 C98.91563489 532.57681778 106.55002954 526.78860854 114.1628418 520.96191406 C120.66539815 515.99377647 127.23429756 511.12437737 133.8359375 506.2890625 C139.77671433 501.92722968 145.6475326 497.47945452 151.5 493 C158.88641792 487.34646605 166.33194466 481.78529806 173.8359375 476.2890625 C179.77671433 471.92722968 185.6475326 467.47945452 191.5 463 C198.88641792 457.34646605 206.33194466 451.78529806 213.8359375 446.2890625 C220.67048908 441.27100303 227.41084104 436.1346563 234.13989258 430.97631836 C239.28942537 427.03731542 244.48126716 423.16747738 249.72509766 419.35498047 C272.98828415 402.42078305 287.11313255 383.12272064 293.25 354.8125 C297.9975145 324.45579674 293.04101023 293.49073751 274.8359375 268.30859375 C274.23007813 267.54675781 273.62421875 266.78492188 273 266 C272.59499268 265.47607666 272.18998535 264.95215332 271.77270508 264.41235352 C267.74704343 259.42413917 263.11135081 255.80488665 257.9375 252.0625 C256.14514787 250.74311818 254.3535039 249.4227739 252.5625 248.1015625 C251.64339844 247.42641602 250.72429687 246.75126953 249.77734375 246.05566406 C245.29089244 242.73499599 240.86680578 239.33378202 236.4375 235.9375 C229.07159038 230.30562423 221.64394363 224.76778147 214.16381836 219.28881836 C207.32156327 214.26529165 200.57629671 209.11998077 193.8359375 203.9609375 C188.10097273 199.57935674 182.32240437 195.26457042 176.5 191 C169.77502542 186.07434972 163.11961007 181.06633768 156.5 176 C146.75457661 168.5446706 136.89966126 161.24870594 127 154 C116.19746393 146.09019325 105.46878051 138.09892917 94.83642578 129.96142578 C89.10139884 125.57954805 83.32258859 121.26470535 77.5 117 C70.77502178 112.07434706 64.11973149 107.06618298 57.5 102 C26.2480353 74.84769647 26.2480353 74.84769647 -12 65 C-15.36830399 65.53450515 -18.68291695 66.20954617 -22 67 C-22.70251428 69.30978181 -23.39619948 71.62152654 -24.078125 73.9375 C-24.68300899 75.94694512 -25.3175928 77.94773724 -25.984375 79.9375 C-28.29974642 87.20420415 -29.55690268 94.27673766 -30.45141602 101.83374023 C-30.57843431 102.87921996 -30.70545259 103.92469969 -30.83631992 105.00186062 C-32.15268787 115.99030205 -33.29684317 126.99632404 -34.4172802 138.00618172 C-34.917569 142.90950065 -35.42729423 147.81182681 -35.93629551 152.7142477 C-36.87727042 161.77803752 -37.81454831 170.84217007 -38.73608398 179.90795898 C-39.38396625 186.27801921 -40.04372125 192.64675559 -40.71112251 199.01479912 C-40.96061151 201.4162396 -41.20581953 203.81812929 -41.44642448 206.22047615 C-43.01675969 221.87660297 -44.59609842 237.24294347 -51.625 251.5625 C-51.96273438 252.2630249 -52.30046875 252.9635498 -52.6484375 253.68530273 C-62.25214933 272.91229918 -77.57844984 288.53138989 -98 296 C-119.62709321 303.01869362 -143.88028021 303.42413207 -166 298 C-166.91604004 297.77957031 -167.83208008 297.55914062 -168.77587891 297.33203125 C-215.83737787 285.72593332 -215.83737787 285.72593332 -224.375 273.0625 C-225.26143485 271.78535608 -226.1495487 270.50937639 -227.0390625 269.234375 C-227.51504883 268.54923828 -227.99103516 267.86410156 -228.48144531 267.15820312 C-231.17484542 263.330284 -233.96542782 259.57433877 -236.75 255.8125 C-237.95313567 254.18360163 -239.15626055 252.55469529 -240.359375 250.92578125 C-241.26333008 249.7030249 -241.26333008 249.7030249 -242.18554688 248.45556641 C-245.12794685 244.47350788 -248.0637044 240.48656062 -251 236.5 C-252.16663334 234.91664211 -253.33330004 233.3333088 -254.5 231.75 C-261.5 222.25 -268.5 212.75 -275.5 203.25 C-276.07806396 202.4655249 -276.65612793 201.6810498 -277.25170898 200.87280273 C-278.41283465 199.29690826 -279.57380589 197.7209 -280.73461914 196.14477539 C-283.73477651 192.07165825 -286.73797347 188.00083442 -289.74609375 183.93359375 C-301.61030528 167.88192197 -301.61030528 167.88192197 -307 160 C-310.76478859 161.25492953 -311.69380667 162.83097519 -314.125 165.9375 C-317.15073542 169.7319093 -320.22397726 173.41936462 -323.5 177 C-326.52282421 180.31989486 -329.42512161 183.69764112 -332.25 187.1875 C-335.85470085 191.63852192 -339.55370267 195.99198605 -343.3125 200.3125 C-343.86357422 200.94599365 -344.41464844 201.5794873 -344.98242188 202.23217773 C-346.10162485 203.51831655 -347.22092837 204.80436788 -348.34033203 206.09033203 C-354.54872623 213.23391241 -360.72823972 220.39645872 -366.6875 227.75 C-370.24267904 232.13151795 -373.96769537 236.31710681 -377.765625 240.48828125 C-380.78015303 243.87699021 -383.61305696 247.40002721 -386.46484375 250.92578125 C-390.05759794 255.28248009 -393.76642903 259.53505296 -397.48339844 263.78588867 C-398.01094727 264.39021729 -398.53849609 264.9945459 -399.08203125 265.6171875 C-399.59048584 266.19637939 -400.09894043 266.77557129 -400.62280273 267.37231445 C-401.80343693 268.76768551 -402.89270438 270.23947201 -403.9609375 271.72265625 C-406.5268636 274.58843195 -409.35648211 276.03155647 -412.8125 277.5625 C-413.46395996 277.85914551 -414.11541992 278.15579102 -414.78662109 278.46142578 C-421.64978899 281.47279899 -428.69604931 283.36321105 -436 285 C-436.75949951 285.1750708 -437.51899902 285.3501416 -438.30151367 285.53051758 C-454.39223657 288.32998018 -473.51596674 287.0708937 -489 282 C-490.17433594 281.63648438 -491.34867188 281.27296875 -492.55859375 280.8984375 C-497.29349502 278.28644883 -499.59777238 274.83343954 -502.625 270.4375 C-503.22763672 269.59123047 -503.83027344 268.74496094 -504.45117188 267.87304688 C-505.70203183 266.11504621 -506.94646559 264.3524562 -508.18457031 262.58544922 C-510.91654126 258.69470523 -513.71052006 254.84959351 -516.5 251 C-517.57428493 249.50916227 -518.64850326 248.01827654 -519.72265625 246.52734375 C-524.8397038 239.44279218 -530.04028279 232.41960902 -535.23388672 225.39111328 C-538.15956103 221.43008838 -541.07950306 217.46484283 -544 213.5 C-545.1666389 211.91664621 -546.33330558 210.33331288 -547.5 208.75 C-554.5 199.25 -554.5 199.25 -556.25244141 196.87158203 C-557.41083662 195.2995436 -558.56936374 193.72760235 -559.72802734 192.15576172 C-562.77237563 188.02543289 -565.81393297 183.89308572 -568.8515625 179.7578125 C-569.48320313 178.89865234 -570.11484375 178.03949219 -570.765625 177.15429688 C-571.97220417 175.51299432 -573.1779815 173.87110189 -574.3828125 172.22851562 C-577.1822636 168.42218647 -580.01016772 164.66072148 -583 161 C-587.64075322 166.05765303 -592.18250335 171.16214258 -596.5 176.5 C-600.11032442 180.96276213 -603.88427929 185.22719533 -607.75 189.46875 C-610.07862053 192.0884481 -612.29562947 194.7751531 -614.5 197.5 C-617.4081338 201.0947765 -620.38541332 204.58260628 -623.5 208 C-626.52282421 211.31989486 -629.42512161 214.69764112 -632.25 218.1875 C-637.46518515 224.62711993 -642.91331752 230.85455403 -648.35351562 237.10351562 C-650.93637432 240.07855216 -653.50053597 243.06946867 -656.0625 246.0625 C-656.54976562 246.63154053 -657.03703125 247.20058105 -657.5390625 247.78686523 C-659.02638265 249.52428535 -660.51325407 251.26208849 -662 253 C-663.05723109 254.23572891 -664.1145235 255.47140537 -665.171875 256.70703125 C-665.69305908 257.31667725 -666.21424316 257.92632324 -666.7512207 258.55444336 C-667.78283851 259.75737908 -668.81777943 260.95747379 -669.85620117 262.15454102 C-671.92348424 264.54091435 -673.93262962 266.90930353 -675.81640625 269.4453125 C-684.54097323 280.94687198 -703.06357748 284.25933247 -716.625 286.25 C-731.57219077 287.9740838 -746.25811867 286.97925606 -760.6875 282.6875 C-761.3465332 282.49905518 -762.00556641 282.31061035 -762.68457031 282.11645508 C-770.57868885 279.59013316 -774.38364889 273.33299792 -778.9375 266.875 C-780.09290613 265.25590788 -781.2491849 263.63743821 -782.40625 262.01953125 C-782.99921875 261.1888916 -783.5921875 260.35825195 -784.203125 259.50244141 C-787.07953608 255.49657 -790.00671176 251.52867698 -792.9375 247.5625 C-793.51814209 246.77601074 -794.09878418 245.98952148 -794.69702148 245.17919922 C-795.87571326 243.58297611 -797.05466843 241.98694747 -798.23388672 240.39111328 C-801.15956103 236.43008838 -804.07950306 232.46484283 -807 228.5 C-808.1666389 226.91664621 -809.33330558 225.33331288 -810.5 223.75 C-817.5 214.25 -824.5 204.75 -831.5 195.25 C-832.36782104 194.07244141 -832.36782104 194.07244141 -833.25317383 192.87109375 C-834.40977281 191.30115813 -835.56586726 189.73085068 -836.72143555 188.16015625 C-839.78792084 183.99351465 -842.86508323 179.83529045 -845.95703125 175.6875 C-846.60220703 174.81931641 -847.24738281 173.95113281 -847.91210938 173.05664062 C-849.15370553 171.38629185 -850.39836895 169.71821747 -851.64648438 168.05273438 C-852.20271484 167.30314453 -852.75894531 166.55355469 -853.33203125 165.78125 C-854.07030151 164.7922168 -854.07030151 164.7922168 -854.82348633 163.78320312 C-856 162 -856 162 -857 159 C-864.76762167 166.6849874 -871.92532375 174.81696528 -878.78515625 183.31640625 C-880.95632827 185.94708557 -883.20241357 188.47942424 -885.5 191 C-888.52282421 194.31989486 -891.42512161 197.69764112 -894.25 201.1875 C-899.46518515 207.62711993 -904.91331752 213.85455403 -910.35351562 220.10351562 C-912.93637409 223.07855189 -915.50056914 226.0694406 -918.0625 229.0625 C-918.55339111 229.63589111 -919.04428223 230.20928223 -919.55004883 230.80004883 C-920.53885203 231.95530518 -921.52754049 233.11065976 -922.51611328 234.26611328 C-925.5062063 237.75996663 -928.49975645 241.25086021 -931.49365234 244.74145508 C-934.55187637 248.30771796 -937.60439567 251.87874314 -940.65112305 255.45483398 C-942.1649769 257.22368309 -943.69156871 258.98093922 -945.21875 260.73828125 C-946.94908281 262.7381017 -948.55920915 264.74054689 -950.15625 266.85546875 C-959.10502375 278.23073692 -975.82382667 282.91612848 -989.77294922 284.79931641 C-1004.73263708 286.14736107 -1020.50255577 286.12346869 -1035 282 C-1036.42505859 281.77376953 -1036.42505859 281.77376953 -1037.87890625 281.54296875 C-1047.73537659 279.36977828 -1052.14055132 270.34478359 -1057.34277344 262.47119141 C-1059.94870613 258.58532654 -1062.7315497 254.83329866 -1065.5 251.0625 C-1069.96833379 244.90837045 -1074.29688342 238.67098389 -1078.5625 232.375 C-1083.01841705 225.79839156 -1087.6440195 219.4002378 -1092.4609375 213.08447266 C-1098.15095647 205.57387401 -1103.40109721 197.76240551 -1108.65649414 189.94433594 C-1109.09985107 189.30270508 -1109.54320801 188.66107422 -1110 188 C-1110.48001465 187.28408691 -1110.9600293 186.56817383 -1111.45458984 185.83056641 C-1113.85521639 182.98698064 -1117.09169528 182.52931389 -1120.5625 181.625 C-1135.46401592 177.3197468 -1146.9464209 168.52979824 -1155.2421875 155.296875 C-1163.44628902 139.90962682 -1164.9069728 123.37508027 -1160.03125 106.68359375 C-1154.36698034 90.47536266 -1143.69709797 79.50859644 -1128.67578125 71.80859375 C-1115.67495066 65.65985886 -1099.66839375 64.79708899 -1085.86328125 68.90234375 C-1069.77495748 75.06990034 -1057.4029327 85.76718609 -1050.1015625 101.40625 C-1044.701956 114.12021709 -1043.48160688 129.77002843 -1048.25 142.875 C-1049.40850745 147.18354439 -1049.29944131 148.47387319 -1047.0546875 152.41796875 C-1044.52321542 155.73285252 -1041.70615355 158.78040096 -1038.88818359 161.8515625 C-1035.48322341 165.72583837 -1032.48932612 169.90866902 -1029.4375 174.0625 C-1024.73553934 180.38127938 -1019.98467223 186.64882792 -1015.08203125 192.81323242 C-1012.50956795 196.05432437 -1009.98900479 199.32797984 -1007.50390625 202.63671875 C-1006.91109863 203.42344971 -1006.31829102 204.21018066 -1005.70751953 205.02075195 C-1004.54565785 206.56610812 -1003.38890046 208.11531783 -1002.23779297 209.66870117 C-1001.71459473 210.36326416 -1001.19139648 211.05782715 -1000.65234375 211.7734375 C-1000.18820068 212.39653809 -999.72405762 213.01963867 -999.24584961 213.66162109 C-998.83471924 214.10328613 -998.42358887 214.54495117 -998 215 C-997.34 215 -996.68 215 -996 215 C-994.45904854 213.17971271 -993.03674529 211.35491228 -991.625 209.4375 C-990.72145009 208.23592663 -989.81644263 207.03544824 -988.91015625 205.8359375 C-988.43465332 205.20526367 -987.95915039 204.57458984 -987.46923828 203.92480469 C-985.05413367 200.76084909 -982.55879725 197.66252461 -980.0625 194.5625 C-974.78169511 187.98872977 -969.5587375 181.37179491 -964.35888672 174.73388672 C-962.07546697 171.82033173 -959.78749197 168.91035807 -957.5 166 C-956.58331177 164.83335027 -955.6666451 163.66668361 -954.75 162.5 C-952.91666667 160.16666667 -951.08333333 157.83333333 -949.25 155.5 C-948.79633057 154.92258057 -948.34266113 154.34516113 -947.87524414 153.75024414 C-946.95784991 152.5826959 -946.04036933 151.41521551 -945.12280273 150.24780273 C-942.84155755 147.3451721 -940.56178786 144.44140726 -938.28515625 141.53515625 C-933.05898703 134.86728518 -927.79643227 128.23061677 -922.49389648 121.62329102 C-919.48883627 117.87466038 -916.5084378 114.10821994 -913.55053711 110.32226562 C-912.16766431 108.55453783 -910.77824301 106.79217178 -909.38671875 105.03125 C-908.01883848 103.2939749 -906.66071688 101.54868194 -905.33203125 99.78125 C-897.90979157 90.30074217 -886.25401238 86.4952921 -874.765625 84.4140625 C-861.80147233 82.98854364 -848.75541891 83.47496803 -835.9375 85.8125 C-835.02863037 85.9777417 -834.11976074 86.1429834 -833.18334961 86.31323242 C-825.74372316 87.80143785 -820.53752232 89.71700374 -815.75 95.875 C-814.98042969 96.8546875 -814.21085937 97.834375 -813.41796875 98.84375 C-812.62003906 99.8853125 -811.82210938 100.926875 -811 102 C-810.19175781 103.0415625 -809.38351562 104.083125 -808.55078125 105.15625 C-806.44418977 107.87622646 -804.35311473 110.60774961 -802.26611328 113.34277344 C-800.18455325 116.06734527 -798.09181489 118.78329886 -796 121.5 C-793.54516343 124.69009703 -791.09135565 127.8809654 -788.640625 131.07421875 C-783.78285089 137.40043765 -778.90007698 143.70648008 -774 150 C-768.30627866 157.31285424 -762.64267982 164.64770031 -757 172 C-755.33390747 174.16710847 -753.66697902 176.33357339 -752 178.5 C-749.54527885 181.69018605 -747.09135583 184.88096517 -744.640625 188.07421875 C-743.85171875 189.10160156 -743.0628125 190.12898437 -742.25 191.1875 C-741.85506348 191.7028833 -741.46012695 192.2182666 -741.05322266 192.74926758 C-738.47847452 196.10187764 -735.87612248 199.43127561 -733.2578125 202.75 C-732.29439941 203.97553589 -732.29439941 203.97553589 -731.31152344 205.22583008 C-730.03492619 206.84861501 -728.75441056 208.46832621 -727.46972656 210.0847168 C-726.88932617 210.82375244 -726.30892578 211.56278809 -725.7109375 212.32421875 C-724.92662354 213.3155481 -724.92662354 213.3155481 -724.12646484 214.3269043 C-723 216 -723 216 -723 218 C-722.34 218 -721.68 218 -721 218 C-720.78214844 217.48179687 -720.56429688 216.96359375 -720.33984375 216.4296875 C-718.45592297 213.01336469 -716.02622833 210.13974908 -713.5625 207.125 C-712.47081786 205.77517315 -711.37968393 204.42490277 -710.2890625 203.07421875 C-709.46196777 202.05207275 -709.46196777 202.05207275 -708.61816406 201.00927734 C-706.19897591 198.00536689 -703.81579646 194.97382485 -701.4375 191.9375 C-700.98834229 191.36467285 -700.53918457 190.7918457 -700.07641602 190.20166016 C-699.17036195 189.04590103 -698.26451805 187.88997712 -697.35888672 186.73388672 C-695.07546697 183.82033173 -692.78749197 180.91035807 -690.5 178 C-689.58331177 176.83335027 -688.6666451 175.66668361 -687.75 174.5 C-685.91666667 172.16666667 -684.08333333 169.83333333 -682.25 167.5 C-681.79633057 166.92258057 -681.34266113 166.34516113 -680.87524414 165.75024414 C-679.95784991 164.5826959 -679.04036933 163.41521551 -678.12280273 162.24780273 C-675.84155755 159.3451721 -673.56178786 156.44140726 -671.28515625 153.53515625 C-666.05509493 146.86231939 -660.786497 140.22245764 -655.48291016 133.60791016 C-652.11292231 129.4011455 -648.76596189 125.17718484 -645.4375 120.9375 C-644.99051758 120.36966797 -644.54353516 119.80183594 -644.08300781 119.21679688 C-641.73871204 116.23437872 -639.41419798 113.23869139 -637.11328125 110.22265625 C-626.16549641 95.93260331 -615.06439637 87.82085072 -596.75 85.3125 C-583.63790054 84.22751994 -571.20150834 85.40836366 -558.28759766 87.63378906 C-556.41459071 87.93363009 -554.52583783 88.13354779 -552.63671875 88.3046875 C-546.86072607 89.12385868 -544.16487732 91.56456722 -540.69116211 96.01367188 C-538.60229058 98.85988228 -536.60725536 101.76510336 -534.61962891 104.68261719 C-531.85703322 108.63536942 -528.85933379 112.4011038 -525.875 116.1875 C-524.68414155 117.71165054 -523.49402201 119.23637874 -522.3046875 120.76171875 C-521.45729004 121.84718994 -521.45729004 121.84718994 -520.59277344 122.95458984 C-518.38227123 125.79327584 -516.19017352 128.64559353 -514 131.5 C-510.08468658 136.60080112 -506.14000512 141.67797742 -502.1875 146.75 C-495.90299498 154.81750692 -489.68354012 162.93317344 -483.47998047 171.06298828 C-479.66746461 176.05284325 -475.8314782 181.02470368 -472 186 C-469.92115318 188.70176223 -467.84293981 191.40401166 -465.76464844 194.10620117 C-463.59513023 196.92683169 -461.42499272 199.74698262 -459.25390625 202.56640625 C-458.80337891 203.15164062 -458.35285156 203.736875 -457.88867188 204.33984375 C-456.63557887 205.9675728 -455.38224986 207.59512016 -454.12890625 209.22265625 C-452.40501307 211.47162515 -450.69406402 213.72853796 -449 216 C-445.73575831 214.91191944 -445.27413934 214.39600227 -443.3203125 211.74609375 C-442.81032715 211.06458252 -442.3003418 210.38307129 -441.77490234 209.6809082 C-441.23043457 208.9405835 -440.6859668 208.20025879 -440.125 207.4375 C-438.95519269 205.87605295 -437.78326272 204.31619424 -436.609375 202.7578125 C-436.01060547 201.9627832 -435.41183594 201.16775391 -434.79492188 200.34863281 C-432.06346713 196.77455846 -429.22766706 193.29009818 -426.375 189.8125 C-420.94513685 183.17933633 -415.61879521 176.47370197 -410.34277344 169.71777344 C-408.06766067 166.80728372 -405.7833163 163.90405504 -403.5 161 C-402.58329022 159.83336721 -401.66662352 158.66670056 -400.75 157.5 C-398.91666667 155.16666667 -397.08333333 152.83333333 -395.25 150.5 C-394.79633057 149.92258057 -394.34266113 149.34516113 -393.87524414 148.75024414 C-392.95784991 147.5826959 -392.04036933 146.41521551 -391.12280273 145.24780273 C-388.84155755 142.3451721 -386.56178786 139.44140726 -384.28515625 136.53515625 C-379.05796694 129.86598368 -373.80751187 123.21689666 -368.48510742 116.62329102 C-365.98342604 113.51673636 -363.52699067 110.38958816 -361.1484375 107.1875 C-350.81571422 93.36350292 -339.22882473 86.52494002 -322 84 C-317.97462137 83.71032322 -313.97225025 83.66659132 -309.9375 83.6875 C-308.84493896 83.69096436 -307.75237793 83.69442871 -306.62670898 83.69799805 C-297.45601172 83.81998645 -288.91371594 84.9391962 -280 87 C-279.0409375 87.13535156 -278.081875 87.27070312 -277.09375 87.41015625 C-269.16112141 88.86691983 -265.75591115 94.7560993 -261.421875 100.99902344 C-258.82252401 104.65703867 -256.02169657 108.15946948 -253.25 111.6875 C-252.05140021 113.22603055 -250.85349146 114.7650997 -249.65625 116.3046875 C-248.43754325 117.86982534 -247.21879307 119.43492937 -246 121 C-238.85120171 130.17988011 -231.71004717 139.36454382 -224.625 148.59375 C-221.43372025 152.74241368 -218.215787 156.87032481 -215 161 C-210.98534375 166.15557352 -206.97898977 171.31684228 -203 176.5 C-196.70570383 184.69698374 -190.34986678 192.84603994 -184 201 C-170.60256902 218.20384394 -170.60256902 218.20384394 -165 225.5 C-164.2265625 226.50417969 -163.453125 227.50835937 -162.65625 228.54296875 C-161.18105856 230.45921469 -159.7112033 232.37924666 -158.24609375 234.30322266 C-156.33626967 236.81060206 -154.41852527 239.3117746 -152.5 241.8125 C-151.88769531 242.62074219 -151.27539062 243.42898438 -150.64453125 244.26171875 C-150.07089844 245.00679687 -149.49726562 245.751875 -148.90625 246.51953125 C-148.39384766 247.19089111 -147.88144531 247.86225098 -147.35351562 248.55395508 C-146.90685547 249.0311499 -146.46019531 249.50834473 -146 250 C-142.59943571 250 -140.71050903 247.49733729 -138.27734375 245.29296875 C-116.60232459 223.4692359 -113.23694031 195.1464378 -111.55329895 165.89648819 C-111.33959627 162.18568581 -111.11860967 158.47537671 -110.89587402 154.7651062 C-110.46406929 147.55220364 -110.03968916 140.33887962 -109.61717987 133.12542725 C-109.04302659 123.32381328 -108.46492593 113.52245315 -107.87715149 103.72164536 C-107.66131209 100.09291714 -107.45176016 96.46386304 -107.24255371 92.83474731 C-105.62533278 65.40072226 -103.2178384 39.37454972 -84 18 C-83.20529297 17.06607422 -83.20529297 17.06607422 -82.39453125 16.11328125 C-62.25083644 -6.01991428 -27.09058697 -6.88936743 0 0 Z " fill="#0088E5" transform="translate(1183,19)"/>
<path d="M0 0 C11.25209203 9.76755815 20.23372885 22.91004455 21.33642578 38.15283203 C21.73809818 47.0383634 21.99092763 55.25380794 18.91796875 63.69921875 C17.7594613 68.00776314 17.86852744 69.29809194 20.11328125 73.2421875 C22.64475333 76.55707127 25.4618152 79.60461971 28.27978516 82.67578125 C31.68474534 86.55005712 34.67864263 90.73288777 37.73046875 94.88671875 C42.43242941 101.20549813 47.18329652 107.47304667 52.0859375 113.63745117 C54.6584008 116.87854312 57.17896396 120.15219859 59.6640625 123.4609375 C60.25687012 124.24766846 60.84967773 125.03439941 61.46044922 125.8449707 C62.6223109 127.39032687 63.77906829 128.93953658 64.93017578 130.49291992 C65.45337402 131.18748291 65.97657227 131.8820459 66.515625 132.59765625 C66.97976807 133.22075684 67.44391113 133.84385742 67.92211914 134.48583984 C68.33324951 134.92750488 68.74437988 135.36916992 69.16796875 135.82421875 C69.82796875 135.82421875 70.48796875 135.82421875 71.16796875 135.82421875 C72.70892021 134.00393146 74.13122346 132.17913103 75.54296875 130.26171875 C76.44651866 129.06014538 77.35152612 127.85966699 78.2578125 126.66015625 C78.73331543 126.02948242 79.20881836 125.39880859 79.69873047 124.74902344 C82.11383508 121.58506784 84.6091715 118.48674336 87.10546875 115.38671875 C92.38627364 108.81294852 97.60923125 102.19601366 102.80908203 95.55810547 C105.09250178 92.64455048 107.38047678 89.73457682 109.66796875 86.82421875 C110.58465698 85.65756902 111.50132365 84.49090236 112.41796875 83.32421875 C114.25130208 80.99088542 116.08463542 78.65755208 117.91796875 76.32421875 C118.37163818 75.74679932 118.82530762 75.16937988 119.29272461 74.57446289 C120.21011884 73.40691465 121.12759942 72.23943426 122.04516602 71.07202148 C124.3264112 68.16939085 126.60618089 65.26562601 128.8828125 62.359375 C134.10898172 55.69150393 139.37153648 49.05483552 144.67407227 42.44750977 C147.67913248 38.69887913 150.65953095 34.93243869 153.61743164 31.14648438 C155.00030444 29.37875658 156.38972574 27.61639053 157.78125 25.85546875 C159.14913027 24.11819365 160.50725187 22.37290069 161.8359375 20.60546875 C169.25817718 11.12496092 180.91395637 7.31951085 192.40234375 5.23828125 C205.36649642 3.81276239 218.41254984 4.29918678 231.23046875 6.63671875 C232.59377319 6.8845813 232.59377319 6.8845813 233.98461914 7.13745117 C241.42424559 8.6256566 246.63044643 10.54122249 251.41796875 16.69921875 C252.18753906 17.67890625 252.95710938 18.65859375 253.75 19.66796875 C254.54792969 20.70953125 255.34585937 21.75109375 256.16796875 22.82421875 C256.97621094 23.86578125 257.78445313 24.90734375 258.6171875 25.98046875 C260.72377898 28.70044521 262.81485402 31.43196836 264.90185547 34.16699219 C266.9834155 36.89156402 269.07615386 39.60751761 271.16796875 42.32421875 C273.62280532 45.51431578 276.0766131 48.70518415 278.52734375 51.8984375 C283.38511786 58.2246564 288.26789177 64.53069883 293.16796875 70.82421875 C298.86169009 78.13707299 304.52528893 85.47191906 310.16796875 92.82421875 C311.83406128 94.99132722 313.50098973 97.15779214 315.16796875 99.32421875 C317.6226899 102.5144048 320.07661292 105.70518392 322.52734375 108.8984375 C323.31625 109.92582031 324.10515625 110.95320313 324.91796875 112.01171875 C325.31870605 112.53362793 325.71944336 113.05553711 326.13232422 113.59326172 C328.61802754 116.82515683 331.11836337 120.04516865 333.62890625 123.2578125 C339.26940436 130.47792217 344.85985099 137.70400288 350.203125 145.1484375 C353.39791563 149.49919611 356.76180162 153.71592611 360.109375 157.94921875 C364.10725371 163.00524377 368.06611839 168.09165552 372.01245117 173.18798828 C374.75573876 176.73059143 377.5093196 180.26155497 380.31640625 183.75390625 C380.79070068 184.35066162 381.26499512 184.94741699 381.75366211 185.56225586 C383.01936841 187.15347521 384.2945058 188.73717993 385.5703125 190.3203125 C386.09753906 191.14660156 386.62476563 191.97289062 387.16796875 192.82421875 C386.16796875 195.82421875 386.16796875 195.82421875 383.5 197.2890625 C358.55182383 207.7279775 332.69756193 211.30951451 306.48046875 203.51171875 C305.82143555 203.32327393 305.16240234 203.1348291 304.48339844 202.94067383 C296.5892799 200.41435191 292.78431986 194.15721667 288.23046875 187.69921875 C287.07506262 186.08012663 285.91878385 184.46165696 284.76171875 182.84375 C283.87226562 181.59779053 283.87226562 181.59779053 282.96484375 180.32666016 C280.08843267 176.32078875 277.16125699 172.35289573 274.23046875 168.38671875 C273.64982666 167.60022949 273.06918457 166.81374023 272.47094727 166.00341797 C271.29225549 164.40719486 270.11330032 162.81116622 268.93408203 161.21533203 C266.00840772 157.25430713 263.08846569 153.28906158 260.16796875 149.32421875 C259.00132985 147.74086496 257.83466317 146.15753163 256.66796875 144.57421875 C249.66796875 135.07421875 242.66796875 125.57421875 235.66796875 116.07421875 C235.08942139 115.28917969 234.51087402 114.50414062 233.91479492 113.6953125 C232.75819594 112.12537688 231.60210149 110.55506943 230.4465332 108.984375 C227.38004791 104.8177334 224.30288552 100.6595092 221.2109375 96.51171875 C220.56576172 95.64353516 219.92058594 94.77535156 219.25585938 93.88085938 C218.01426322 92.2105106 216.7695998 90.54243622 215.52148438 88.87695312 C214.96525391 88.12736328 214.40902344 87.37777344 213.8359375 86.60546875 C213.09766724 85.61643555 213.09766724 85.61643555 212.34448242 84.60742188 C211.16796875 82.82421875 211.16796875 82.82421875 210.16796875 79.82421875 C202.40034708 87.50920615 195.242645 95.64118403 188.3828125 104.140625 C186.21164048 106.77130432 183.96555518 109.30364299 181.66796875 111.82421875 C178.64514454 115.14411361 175.74284714 118.52185987 172.91796875 122.01171875 C167.7027836 128.45133868 162.25465123 134.67877278 156.81445312 140.92773438 C154.23159466 143.90277064 151.66739961 146.89365935 149.10546875 149.88671875 C148.61457764 150.46010986 148.12368652 151.03350098 147.61791992 151.62426758 C146.62911672 152.77952393 145.64042826 153.93487851 144.65185547 155.09033203 C141.66176245 158.58418538 138.6682123 162.07507896 135.67431641 165.56567383 C132.61609238 169.13193671 129.56357308 172.70296189 126.5168457 176.27905273 C125.00299185 178.04790184 123.47640004 179.80515797 121.94921875 181.5625 C120.21888594 183.56232045 118.6087596 185.56476564 117.01171875 187.6796875 C108.062945 199.05495567 91.34414208 203.74034723 77.39501953 205.62353516 C62.43533167 206.97157982 46.66541298 206.94768744 32.16796875 202.82421875 C30.74291016 202.59798828 30.74291016 202.59798828 29.2890625 202.3671875 C19.43259216 200.19399703 15.02741743 191.16900234 9.82519531 183.29541016 C7.21926262 179.40954529 4.43641905 175.65751741 1.66796875 171.88671875 C-2.80036504 165.7325892 -7.12891467 159.49520264 -11.39453125 153.19921875 C-15.8504483 146.62261031 -20.47605075 140.22445655 -25.29296875 133.90869141 C-30.98298772 126.39809276 -36.23312846 118.58662426 -41.48852539 110.76855469 C-41.93188232 110.12692383 -42.37523926 109.48529297 -42.83203125 108.82421875 C-43.3120459 108.10830566 -43.79206055 107.39239258 -44.28662109 106.65478516 C-46.68724764 103.81119939 -49.92372653 103.35353264 -53.39453125 102.44921875 C-68.29604717 98.14396555 -79.77845215 89.35401699 -88.07421875 76.12109375 C-96.27832027 60.73384557 -97.73900405 44.19929902 -92.86328125 27.5078125 C-87.19901159 11.29958141 -76.52912922 0.33281519 -61.5078125 -7.3671875 C-41.4182643 -16.86852705 -17.45220658 -13.40810905 0 0 Z " fill="#0086EA" transform="translate(115.83203125,98.17578125)"/>
<path d="M0 0 C6.61402574 0.94486082 10.53429541 7.75984571 14.34472656 12.76708984 C22.86946016 24.30108452 30.64890259 36.39358377 38.37060547 48.47314453 C39.42132103 50.10258805 40.49198211 51.71942352 41.58642578 53.31982422 C42.05419434 54.01736816 42.52196289 54.71491211 43.00390625 55.43359375 C43.41584229 56.03099365 43.82777832 56.62839355 44.25219727 57.24389648 C45.24857235 59.58373519 44.91708113 60.65864643 44 63 C42.2820441 65.21088382 40.54724016 67.29050383 38.6875 69.375 C37.59100068 70.62877932 36.49465074 71.88268929 35.3984375 73.13671875 C34.83479492 73.77657715 34.27115234 74.41643555 33.69042969 75.07568359 C31.04041208 78.09235586 28.42540659 81.13868659 25.8125 84.1875 C25.31282715 84.76902832 24.8131543 85.35055664 24.29833984 85.94970703 C21.24929915 89.50775616 18.26233543 93.10879689 15.3125 96.75 C11.75732096 101.13151795 8.03230463 105.31710681 4.234375 109.48828125 C1.99865467 112.00151232 -0.13377682 114.57311479 -2.25 117.1875 C-5.85470085 121.63852192 -9.55370267 125.99198605 -13.3125 130.3125 C-13.86357422 130.94599365 -14.41464844 131.5794873 -14.98242188 132.23217773 C-16.10162485 133.51831655 -17.22092837 134.80436788 -18.34033203 136.09033203 C-24.54872623 143.23391241 -30.72823972 150.39645872 -36.6875 157.75 C-40.35943494 162.27961317 -44.2037916 166.61646495 -48.15234375 170.90625 C-50.13945339 173.06333263 -50.13945339 173.06333263 -52 176 C-52.66 176 -53.32 176 -54 176 C-55.4453125 174.37036133 -55.4453125 174.37036133 -57.125 172.08203125 C-57.7439917 171.24631592 -58.3629834 170.41060059 -59.00073242 169.54956055 C-59.99036987 168.19471558 -59.99036987 168.19471558 -61 166.8125 C-62.37054484 164.96053115 -63.74163866 163.10896845 -65.11328125 161.2578125 C-66.11609131 159.89897949 -66.11609131 159.89897949 -67.13916016 158.51269531 C-73.98262581 149.27195161 -81.13391866 140.27455251 -88.3359375 131.3125 C-88.78678711 130.7453125 -89.23763672 130.178125 -89.70214844 129.59375 C-90.89482011 128.12915995 -92.15188995 126.71763707 -93.4140625 125.3125 C-95 123 -95 123 -94.74511719 121.05419922 C-93.4834997 117.57607026 -90.96220669 114.93896652 -88.625 112.125 C-87.52414207 110.77522669 -86.42389484 109.42495509 -85.32421875 108.07421875 C-84.76653809 107.39278809 -84.20885742 106.71135742 -83.63427734 106.00927734 C-81.19822825 103.01425433 -78.81563292 99.97857524 -76.4375 96.9375 C-75.52999147 95.77991377 -74.62243936 94.62236171 -73.71484375 93.46484375 C-73.04364502 92.60802002 -73.04364502 92.60802002 -72.35888672 91.73388672 C-69.6171488 88.23553554 -66.86925044 84.7420205 -64.12255859 81.24755859 C-61.84143761 78.34497577 -59.56171737 75.44131727 -57.28515625 72.53515625 C-53.08999658 67.18304902 -48.8817142 61.84357675 -44.61914062 56.54492188 C-39.84763294 50.61328291 -35.16472522 44.62655981 -30.5625 38.5625 C-25.74779711 32.22213273 -20.80665668 26.00357055 -15.76318359 19.84399414 C-10.41210402 13.30460473 -5.19536578 6.66339498 0 0 Z " fill="#007ADA" transform="translate(830,116)"/>
<path d="M0 0 C11.25998977 9.77441391 20.24788668 22.92973525 21.33642578 38.18505859 C22.20348095 57.6484518 18.36304158 71.09983396 6.12109375 86.37890625 C-4.93197836 98.11708613 -20.43435021 104.65697024 -36.39453125 105.19921875 C-53.15414068 104.89186885 -67.31793058 98.93063801 -79.515625 87.3203125 C-90.75619087 75.20779717 -96.15384524 60.31245297 -95.83203125 43.82421875 C-94.71202081 27.18125664 -87.82812754 12.86426022 -75.73828125 1.37890625 C-53.69141391 -16.60194047 -22.61431997 -17.37403617 0 0 Z " fill="#00BFCD" transform="translate(115.83203125,98.17578125)"/>
<path d="M0 0 C1.19579681 -0.00622879 2.39159363 -0.01245758 3.62362671 -0.01887512 C4.91523712 -0.00966537 6.20684753 -0.00045563 7.53759766 0.0090332 C8.88839721 0.00955267 10.23919753 0.00903163 11.58999634 0.00752258 C14.42632292 0.0076123 17.26236528 0.01802609 20.09863281 0.03613281 C23.6934396 0.05860287 27.28782355 0.05940361 30.88268089 0.05261517 C33.67810667 0.04923082 36.47344029 0.0559914 39.26884842 0.0657444 C41.22596725 0.07135648 43.1831019 0.07017437 45.14022827 0.06877136 C62.62791787 0.20459014 78.73923365 2.22890518 92.07666016 14.37231445 C93.10726562 15.26563477 93.10726562 15.26563477 94.15869141 16.17700195 C107.61406337 28.57755508 113.07641467 47.58203376 114.28149414 65.40112305 C114.37877747 68.45725543 114.405741 71.50221107 114.38916016 74.55981445 C114.38178833 76.18838379 114.38178833 76.18838379 114.37426758 77.84985352 C114.06919904 98.99501456 108.71749164 119.45887517 93.88916016 135.24731445 C80.13996414 148.23059058 62.16368981 151.02854304 43.96337891 150.8684082 C42.49127633 150.86856375 41.01917337 150.87006197 39.54707336 150.87281799 C36.50083752 150.87418558 33.45508209 150.86190513 30.40893555 150.83886719 C26.50612039 150.81015488 22.60408095 150.81332984 18.70120525 150.8259573 C15.67889243 150.83289872 12.65675979 150.82514845 9.63446999 150.81270027 C8.19396466 150.80819378 6.75344 150.80784196 5.31293297 150.81176567 C3.31316285 150.81467072 1.3133962 150.79603669 -0.6862793 150.77636719 C-1.82160599 150.7709642 -2.95693268 150.76556122 -4.12666321 150.75999451 C-6.92333984 150.37231445 -6.92333984 150.37231445 -8.57390213 149.21104527 C-10.47741686 146.61733445 -10.30364869 144.76607335 -10.3110199 141.56494141 C-10.32092453 140.35351471 -10.33082916 139.14208801 -10.34103394 137.89395142 C-10.33679572 136.5494985 -10.33223784 135.20504657 -10.32739258 133.8605957 C-10.33309407 132.44631408 -10.34005747 131.03203706 -10.34819031 129.61776733 C-10.36616034 125.77482476 -10.36494634 121.93211003 -10.35924792 118.08913803 C-10.35616196 114.88318003 -10.36224181 111.67726616 -10.36828667 108.47131443 C-10.38234256 100.90995692 -10.38076147 93.34871237 -10.36938477 85.78735352 C-10.35789871 77.98068541 -10.37198478 70.17436064 -10.39878124 62.36773777 C-10.42091398 55.66957201 -10.42758124 48.97151422 -10.42170483 42.27331448 C-10.41832864 38.27079994 -10.42079401 34.26850559 -10.43795586 30.26602173 C-10.45338482 26.50335937 -10.44951527 22.74120712 -10.43065071 18.97856522 C-10.42695367 17.59624964 -10.43010572 16.21389661 -10.4405365 14.83161545 C-10.45366951 12.9476777 -10.43983861 11.06360895 -10.42454529 9.1796875 C-10.424336 8.12444382 -10.42412672 7.06920013 -10.42391109 5.98197937 C-9.92333984 3.37231445 -9.92333984 3.37231445 -8.06330013 1.5327425 C-5.24589287 0.00495788 -3.19988993 -0.00191761 0 0 Z M10.07666016 24.37231445 C9.50446215 27.65936687 9.54026046 30.894219 9.57495117 34.22387695 C9.56954819 35.21143982 9.5641452 36.19900269 9.55857849 37.2164917 C9.5460833 40.47707191 9.56258808 43.73677053 9.58056641 46.99731445 C9.58041144 49.26505581 9.57892281 51.53279743 9.57615662 53.80053711 C9.57477226 58.55179563 9.58733716 63.30275241 9.61010742 68.05395508 C9.63849181 74.14388238 9.63575505 80.2333083 9.62301731 86.32327271 C9.61606201 91.00557741 9.62384778 95.68776624 9.63627434 100.37005615 C9.64079026 102.61553503 9.64112441 104.86102634 9.63720894 107.10650635 C9.63429826 110.24484754 9.65079755 113.38249804 9.67260742 116.52075195 C9.66810577 117.44869568 9.66360413 118.3766394 9.65896606 119.33270264 C9.7145068 124.14337151 9.89027041 127.49470598 13.07666016 131.37231445 C16.05224844 132.86010859 19.10135972 132.5557631 22.36572266 132.57543945 C23.46985001 132.58398956 23.46985001 132.58398956 24.59628296 132.5927124 C26.16492271 132.60217785 27.7335825 132.60870249 29.30224609 132.61254883 C31.6441038 132.6220802 33.98501533 132.65300943 36.32666016 132.68481445 C51.05953117 132.78860076 67.90284912 132.25207783 79.07666016 121.37231445 C91.93697972 105.24533617 94.44621493 84.66828263 92.76806641 64.70043945 C91.03461513 49.66696817 86.94787823 37.54294923 75.70166016 26.93481445 C64.77823277 18.28605959 51.04322173 19.10366394 37.89941406 19.0222168 C35.93054444 19.00558397 33.96173695 18.97819892 31.99316406 18.94018555 C29.14307614 18.88553153 26.29438822 18.86357127 23.44384766 18.84887695 C22.56461639 18.82620758 21.68538513 18.80353821 20.7795105 18.78018188 C19.95830719 18.78303192 19.13710388 18.78588196 18.29101562 18.78881836 C17.57186981 18.78073151 16.852724 18.77264465 16.11178589 18.76431274 C12.74651782 19.76969964 11.80995351 21.35343847 10.07666016 24.37231445 Z " fill="#0095FC" transform="translate(31.92333984375,376.627685546875)"/>
<path d="M0 0 C3.41916642 2.74526432 5.98880512 5.56337958 7.8828125 9.57421875 C7.8828125 10.23421875 7.8828125 10.89421875 7.8828125 11.57421875 C8.5428125 11.57421875 9.2028125 11.57421875 9.8828125 11.57421875 C10.12902344 10.99671875 10.37523437 10.41921875 10.62890625 9.82421875 C15.00859149 1.96534431 23.41320721 -2.29799995 31.640625 -5.00390625 C42.71115162 -7.08686248 54.71455279 -6.22487038 64.1875 0.1171875 C71.9610815 6.33890016 74.64267753 13.92783358 75.8828125 23.57421875 C76.16797945 29.39564491 76.1649982 35.20792089 76.1484375 41.03515625 C76.14978707 42.7152207 76.15173003 44.39528477 76.15423584 46.0753479 C76.15716852 49.57680013 76.15294637 53.07814964 76.14355469 56.57958984 C76.13210804 61.0652442 76.13876411 65.55066055 76.15069962 70.03630638 C76.15792339 73.49697671 76.15562882 76.95759046 76.15044403 80.41826248 C76.14911171 82.07286228 76.15074062 83.72746724 76.15540314 85.382061 C76.16048273 87.68892841 76.15274061 89.99540762 76.14160156 92.30224609 C76.14001038 93.61333344 76.13841919 94.92442078 76.13677979 96.27523804 C75.89783266 99.37911005 75.64927262 101.05495815 73.8828125 103.57421875 C70.86073855 105.58893472 69.96554551 105.91140909 66.5078125 106.01171875 C65.75757813 106.05167969 65.00734375 106.09164062 64.234375 106.1328125 C60.65257239 105.28198563 59.20502425 103.36968896 56.8828125 100.57421875 C56.2570343 97.46542358 56.2570343 97.46542358 56.25512695 93.93896484 C56.24422028 92.96950928 56.24422028 92.96950928 56.23309326 91.98046875 C56.21455522 89.8523011 56.2305542 87.72582383 56.24609375 85.59765625 C56.2380446 84.10656243 56.22752129 82.61548012 56.21464539 81.12442017 C56.18611183 77.19941512 56.18551364 73.27493786 56.19250488 69.34985352 C56.19982561 63.09031668 56.16813141 56.83095185 56.13005638 50.57155228 C56.12130823 48.40087553 56.12646812 46.23058094 56.13362122 44.05990601 C56.43457427 28.78368667 56.43457427 28.78368667 49.8828125 15.57421875 C44.37522843 11.33761562 37.49846988 11.77349876 30.8828125 12.57421875 C23.96248818 14.53387283 19.86056363 17.99002293 16.0390625 24 C12.60504223 31.64533567 12.61067144 39.00924284 12.63898277 47.27440262 C12.64463514 49.40239496 12.6353241 51.52985418 12.6217804 53.6578064 C12.58488385 59.70191093 12.56613077 65.74582466 12.57739258 71.79003906 C12.58325709 75.50187623 12.56493066 79.21295134 12.53150368 82.92463303 C12.52357906 84.33194218 12.52478677 85.73933504 12.53552818 87.14662552 C12.62583502 99.50031038 12.62583502 99.50031038 9.4855957 103.43432617 C6.82223266 105.6240248 5.77673013 106.37524768 2.3828125 106.26171875 C1.650625 106.26558594 0.9184375 106.26945313 0.1640625 106.2734375 C-3.28072718 105.21758587 -4.82613667 103.3122861 -7.1171875 100.57421875 C-7.7429657 97.51011658 -7.7429657 97.51011658 -7.74487305 94.04663086 C-7.75806076 92.74435043 -7.77124847 91.44207001 -7.78483582 90.10032654 C-7.7747464 88.68407027 -7.76443076 87.2678156 -7.75390625 85.8515625 C-7.76195652 84.38528431 -7.77248047 82.91901782 -7.78535461 81.45277405 C-7.81388877 77.59226543 -7.81448713 73.73229334 -7.80749512 69.8717041 C-7.80017553 63.71911376 -7.83192647 57.56669852 -7.86994362 51.41424751 C-7.87867525 49.28294629 -7.87353835 47.15203589 -7.86637878 45.02073669 C-7.48269265 29.22461835 -7.48269265 29.22461835 -14.1171875 15.57421875 C-19.48483196 11.5484854 -25.69853692 11.854602 -32.1171875 12.57421875 C-39.31227152 14.33967918 -44.14360353 18.41206535 -48.1171875 24.57421875 C-51.51201944 32.90236412 -51.54395153 41.38904104 -51.5234375 50.25390625 C-51.53269406 51.63869437 -51.54367264 53.02347193 -51.55627441 54.40823364 C-51.59887065 59.49466975 -51.61032234 64.58108026 -51.62249756 69.66766357 C-51.6340455 73.99218969 -51.65762168 78.31632658 -51.69718933 82.64068985 C-51.71069518 84.65526181 -51.70640124 86.66992786 -51.70178223 88.68453979 C-51.71189331 89.9099649 -51.72200439 91.13539001 -51.73242188 92.39794922 C-51.73447632 93.47285614 -51.73653076 94.54776306 -51.73864746 95.65524292 C-52.29549293 99.94915713 -54.09719346 102.55422471 -57.1171875 105.57421875 C-61.72219057 106.26416694 -65.81535802 106.49502497 -69.6796875 103.76171875 C-72.63816096 99.25969392 -72.27164967 94.78195376 -72.27832031 89.59228516 C-72.28328522 88.67328934 -72.28825012 87.75429352 -72.29336548 86.80744934 C-72.30798534 83.7635524 -72.31478853 80.71970755 -72.3203125 77.67578125 C-72.32606373 75.5621236 -72.33182146 73.44846597 -72.33758545 71.33480835 C-72.34809468 66.90126299 -72.35393798 62.46773576 -72.35742188 58.03417969 C-72.36290897 52.35228992 -72.38694205 46.6706395 -72.41539383 40.98882484 C-72.43401334 36.62223611 -72.43922543 32.25570513 -72.44075775 27.88908005 C-72.44378593 25.79430201 -72.45182 23.69952504 -72.46494293 21.60478592 C-72.48199022 18.67465214 -72.48012641 15.74510461 -72.47363281 12.81494141 C-72.4828476 11.94931076 -72.49206238 11.08368011 -72.5015564 10.19181824 C-72.4688367 5.48062526 -72.14749608 2.41838464 -69.1171875 -1.42578125 C-66.50864352 -3.55126153 -64.30211185 -3.55955415 -61.0546875 -3.36328125 C-57.96907838 -2.87004262 -57.33365505 -2.67018009 -55.1796875 -0.23828125 C-54.06483715 2.71279322 -53.48107535 5.44478327 -53.1171875 8.57421875 C-52.6428125 7.87296875 -52.1684375 7.17171875 -51.6796875 6.44921875 C-39.29366768 -7.44729129 -15.53675647 -10.46294485 0 0 Z " fill="#0095FC" transform="translate(578.1171875,421.42578125)"/>
<path d="M0 0 C1.05848145 0.00563965 2.11696289 0.0112793 3.20751953 0.01708984 C15.44647157 0.20764544 26.50246162 2.16637027 35.75 10.8359375 C42.97885595 19.65686292 42.57646279 32.55152689 42.6015625 43.31640625 C42.61592412 44.73023416 42.63169006 46.14404842 42.64877319 47.55784607 C42.69023352 51.24748009 42.71547693 54.93702948 42.73626709 58.62683105 C42.77234356 64.53278974 42.83379042 70.43853802 42.89475632 76.34428215 C42.91353501 78.38410811 42.92548308 80.4238781 42.93618774 82.46376038 C42.99000839 89.08129684 43.22258039 95.55947481 44.0418396 102.12998962 C44.16125852 105.26408992 43.15213811 106.98504514 41.125 109.3125 C38.75459692 111.68290308 38.06197247 111.65715793 34.8125 111.75 C31.17409818 111.66225719 30.26736142 111.41548486 27.1875 109.1875 C25.08376292 106.25501801 24.01567168 103.79421656 23.125 100.3125 C22.53074219 100.75980469 21.93648438 101.20710937 21.32421875 101.66796875 C6.63396821 112.38294154 -8.00573375 116.39910694 -26.1875 113.84765625 C-35.64591451 111.80878884 -43.39325084 107.45681304 -48.875 99.3125 C-53.3951357 91.14949177 -54.38295134 82.63875742 -52.21484375 73.54296875 C-49.07552554 64.69579926 -43.13157339 58.14255554 -34.94921875 53.6171875 C-22.25023253 48.22778293 -7.42933591 47.21707305 6.09375 45.2421875 C11.4776963 44.44284681 16.80161278 43.44409153 22.125 42.3125 C21.72857884 32.90344081 21.72857884 32.90344081 18.125 24.3125 C18.125 23.6525 18.125 22.9925 18.125 22.3125 C16.46961042 21.61830437 14.79863977 20.96146236 13.125 20.3125 C12.52816406 20.04824219 11.93132812 19.78398437 11.31640625 19.51171875 C1.45090613 15.57670831 -9.88841031 15.94092511 -19.6328125 20.046875 C-24.13492548 22.58813738 -26.17563682 25.82635325 -28.375 30.5 C-30.1671126 33.86021113 -31.33064096 34.94308855 -34.875 36.3125 C-38.92810471 36.2413929 -41.08612288 35.95605765 -44.25 33.375 C-46.57885655 30.41914361 -47.06405206 28.88983035 -46.8125 25.1875 C-45.89431204 18.03711126 -41.57312576 13.47183505 -36.125 9.0625 C-25.32911365 1.50948445 -12.86713108 -0.07160909 0 0 Z M15.4609375 59.30078125 C14.03599976 59.61607788 14.03599976 59.61607788 12.58227539 59.93774414 C11.05654907 60.27793579 11.05654907 60.27793579 9.5 60.625 C3.0813068 62.05032232 -3.32411616 63.4336372 -9.80712891 64.53344727 C-17.49540992 65.84290735 -23.82689612 67.02992659 -29.3125 72.9375 C-32.42707362 77.6716519 -32.48517551 81.72638614 -31.875 87.3125 C-29.51827908 92.20722807 -26.54687656 94.62865602 -21.875 97.3125 C-13.64272461 100.0565918 -1.89641146 99.48840589 5.9140625 95.703125 C13.59000406 90.87514763 19.13962023 85.26450072 21.65991211 76.43945312 C22.40916274 73.01295891 22.22757379 69.55200215 22.1875 66.0625 C22.18298828 65.31742187 22.17847656 64.57234375 22.17382812 63.8046875 C22.16209246 61.9739236 22.1441585 60.14320127 22.125 58.3125 C19.77176047 58.3125 17.7604144 58.78652194 15.4609375 59.30078125 Z " fill="#0095FC" transform="translate(436.875,415.6875)"/>
<path d="M0 0 C11.08558325 8.74008122 16.9162737 22.31740667 18.69140625 36.0078125 C20.38467806 54.11042751 18.62314339 73.01964871 7.06640625 87.6953125 C-2.40730414 99.03117727 -15.23888105 103.68594937 -29.6171875 105.04296875 C-43.97039425 105.41099969 -55.47000213 101.55472208 -67.18359375 93.4453125 C-79.77384587 80.85506038 -83.93348136 65.03573523 -84.30859375 47.6953125 C-83.939188 30.60190091 -80.28225057 14.7888968 -67.71484375 2.53125 C-49.06341916 -13.63735508 -20.04643168 -13.52627916 0 0 Z M-56.93359375 18.6953125 C-65.12993259 29.76716248 -65.192701 46.14708255 -63.46484375 59.25 C-61.54800369 68.94829791 -57.6374238 77.33362743 -49.7265625 83.515625 C-42.70038609 88.13851231 -34.87518339 89.76933119 -26.578125 88.26953125 C-18.40281743 86.20352329 -11.82804693 81.91597629 -7.05859375 74.8828125 C0.53694615 61.36798978 0.60987344 44.71786858 -2.89453125 29.99609375 C-5.74182428 20.95112153 -10.88784412 14.00805202 -19.21484375 9.4453125 C-33.81647922 2.79140266 -46.55846246 7.29015915 -56.93359375 18.6953125 Z " fill="#0095FC" transform="translate(756.93359375,425.3046875)"/>
<path d="M0 0 C4.443781 4.5888436 6.50937096 9.07117154 8.6015625 15.05078125 C8.92027313 15.93068222 9.23898376 16.81058319 9.56735229 17.71714783 C10.59930142 20.57787726 11.61259105 23.44480333 12.625 26.3125 C13.33200311 28.28702717 14.03969073 30.26130938 14.74804688 32.23535156 C20.76419207 49.06767004 26.48661234 65.99682641 32 83 C32.24419678 82.24122559 32.48839355 81.48245117 32.73999023 80.70068359 C38.43100037 63.11407105 44.45211492 45.65657179 50.80178833 28.29644775 C51.55794577 26.22650866 52.31029796 24.15517545 53.05880737 22.0824585 C54.12022196 19.14829332 55.19654374 16.22004006 56.27734375 13.29296875 C56.59368774 12.41204056 56.91003174 11.53111237 57.23596191 10.62348938 C58.86511509 6.26753866 60.20462833 2.93160756 64 0 C67.49135536 -1.1865153 70.86130144 -1.35958902 74.375 -0.25 C76 1 76 1 78 4 C78.3985439 9.05758521 77.64014153 12.83332252 75.8671875 17.55395508 C75.63898378 18.17106165 75.41078007 18.78816822 75.17566109 19.42397499 C74.41959447 21.46005306 73.64744483 23.48961633 72.875 25.51953125 C72.33446346 26.96505406 71.79492372 28.41094996 71.25631714 29.85719299 C69.81547977 33.71709266 68.36051451 37.57151615 66.90224457 41.42485809 C65.39649153 45.40958594 63.90237203 49.39867268 62.40673828 53.38720703 C60.0368527 59.70224707 57.65875687 66.01413569 55.27441406 72.32373047 C52.87764572 78.66643925 50.49569444 85.01447246 48.12713623 91.36778259 C46.70253885 95.1865961 45.27040342 99.00254188 43.83544922 102.81747437 C43.20732501 104.49007063 42.58157475 106.16356082 41.95849609 107.83804321 C38.91270252 116.0086872 35.67182151 123.98949342 31.79296875 131.8046875 C31.3051442 132.78844864 31.3051442 132.78844864 30.8074646 133.79208374 C26.22127895 142.77715869 20.68716762 148.77094413 11 152 C8.54548666 152.17209806 6.08511082 152.26658438 3.625 152.3125 C2.31789062 152.34988281 1.01078125 152.38726563 -0.3359375 152.42578125 C-4.53402068 151.93794429 -6.11628803 151.03491784 -9 148 C-10.15782531 144.01997551 -10.45343333 141.97164286 -8.6875 138.1875 C-5.53498849 134.100911 -5.53498849 134.100911 -2.390625 133.5078125 C-1.35421875 133.38148438 -0.3178125 133.25515625 0.75 133.125 C7.54174821 132.02428778 7.54174821 132.02428778 13 128 C17.69721273 120.10323658 22.12937427 112.29044889 20 103 C18.90818394 99.56365992 17.61591458 96.21486329 16.30859375 92.85546875 C15.93112503 91.8685051 15.55365631 90.88154144 15.16474915 89.8646698 C14.35151301 87.74105256 13.53497178 85.61869862 12.7154541 83.49749756 C11.42701525 80.16034371 10.14922973 76.81928144 8.87402344 73.47705078 C5.06509021 63.50685236 1.22638382 53.54912471 -2.68321228 43.61793518 C-4.19279134 39.778859 -5.69010363 35.93505689 -7.18624878 32.09072876 C-8.23141447 29.42244836 -9.29618812 26.76255315 -10.36157227 24.10229492 C-10.99728518 22.47224325 -11.63202598 20.841812 -12.265625 19.2109375 C-12.56047287 18.4922197 -12.85532074 17.77350189 -13.15910339 17.03300476 C-15.11036309 11.91980342 -15.12695166 8.37228762 -14 3 C-10.73308437 -1.60338112 -5.02009469 -1.97677721 0 0 Z " fill="#0095FC" transform="translate(178,419)"/>
<path d="M0 0 C6.87637543 5.84242767 9.77997085 12.99283716 11.0625 21.8125 C11.38900011 27.66065332 11.41757134 33.50326163 11.43359375 39.359375 C11.44257316 41.06089349 11.45169522 42.76241123 11.46095276 44.46392822 C11.47736679 48.0142203 11.48513026 51.56441883 11.48803711 55.11474609 C11.49344562 59.66003738 11.53125863 64.20445043 11.57678127 68.74949265 C11.60652194 72.25654325 11.61375984 75.7633802 11.61476326 79.27054596 C11.61896335 80.94668904 11.63138929 82.62283288 11.65228081 84.29885101 C11.67916485 86.63967648 11.67438325 88.97843452 11.66186523 91.31933594 C11.67669952 92.00722702 11.69153381 92.6951181 11.70681763 93.40385437 C11.6485706 97.23238735 11.12656992 98.73419926 8.6676178 101.73931885 C5.97898911 103.87895888 4.93002284 104.49678737 1.5625 104.4375 C0.46421875 104.45683594 0.46421875 104.45683594 -0.65625 104.4765625 C-4.12491593 103.4668481 -5.64673904 101.5589415 -7.9375 98.8125 C-8.55654907 95.71043396 -8.55654907 95.71043396 -8.54931641 92.19311523 C-8.55498123 91.54841782 -8.56064606 90.9037204 -8.56648254 90.23948669 C-8.57994234 88.11609005 -8.55905813 85.99441506 -8.5390625 83.87109375 C-8.54456933 82.3823989 -8.55269994 80.89371168 -8.56332397 79.40504456 C-8.58619801 75.48532844 -8.5820039 71.56616991 -8.56951904 67.64642334 C-8.55122069 61.3990488 -8.56151305 55.15200845 -8.59537888 48.90471077 C-8.60140536 46.74003776 -8.58831478 44.57609902 -8.57339478 42.41148376 C-8.32740422 28.81419806 -8.32740422 28.81419806 -13.62368774 16.75340271 C-19.59682014 11.21498708 -25.6393894 10.34626724 -33.58203125 10.5078125 C-41.66662168 11.24191966 -47.11069808 14.20150423 -52.46484375 20.2265625 C-57.33268333 28.77433385 -57.37805726 37.78589754 -57.37890625 47.39453125 C-57.39070565 48.78075027 -57.40407604 50.16695671 -57.41893005 51.55314636 C-57.45483278 55.17279122 -57.47523732 58.79232441 -57.49047852 62.41210938 C-57.51547512 68.22157584 -57.55511724 74.03079605 -57.61237907 79.84003258 C-57.62862154 81.85913879 -57.632476 83.87800776 -57.63539124 85.89717102 C-57.64557785 87.12582382 -57.65576447 88.35447662 -57.66625977 89.62036133 C-57.67053482 90.69828445 -57.67480988 91.77620758 -57.67921448 92.88679504 C-58.02216064 96.7714854 -58.9437055 99.65969838 -61.5 102.625 C-65.25387551 104.45381115 -68.84512514 104.50459281 -72.9375 103.8125 C-75.96965675 101.61418636 -76.75404398 100.36286806 -77.9375 96.8125 C-78.04465909 93.81104415 -78.09477426 90.83247012 -78.09863281 87.83056641 C-78.10359772 86.91157059 -78.10856262 85.99257477 -78.11367798 85.04573059 C-78.12829784 82.00183365 -78.13510103 78.9579888 -78.140625 75.9140625 C-78.14637623 73.80040485 -78.15213396 71.68674722 -78.15789795 69.5730896 C-78.16840718 65.13954424 -78.17425048 60.70601701 -78.17773438 56.27246094 C-78.18322147 50.59057117 -78.20725455 44.90892075 -78.23570633 39.22710609 C-78.25432584 34.86051736 -78.25953793 30.49398638 -78.26107025 26.1273613 C-78.26409843 24.03258326 -78.2721325 21.93780629 -78.28525543 19.84306717 C-78.30230272 16.91293339 -78.30043891 13.98338586 -78.29394531 11.05322266 C-78.3031601 10.18759201 -78.31237488 9.32196136 -78.3218689 8.43009949 C-78.2891492 3.71890651 -77.96780858 0.65666589 -74.9375 -3.1875 C-72.32895602 -5.31298028 -70.12242435 -5.3212729 -66.875 -5.125 C-63.78939088 -4.63176137 -63.15396755 -4.43189884 -61 -2 C-59.88514965 0.95107447 -59.30138785 3.68306452 -58.9375 6.8125 C-58.57140625 6.37679688 -58.2053125 5.94109375 -57.828125 5.4921875 C-43.49445311 -10.27485158 -17.23292485 -12.14779948 0 0 Z " fill="#0095FC" transform="translate(351.9375,423.1875)"/>
</svg>
