<?xml version="1.0" encoding="UTF-8"?>
<svg version="1.1" xmlns="http://www.w3.org/2000/svg" width="728" height="698">
<path d="M0 0 C0.91104492 0.23106445 1.82208984 0.46212891 2.76074219 0.70019531 C28.50020478 7.40274125 49.58596583 17.83440124 70.33984375 34.33203125 C74.91564368 37.96137875 79.59542839 41.43224323 84.3125 44.875 C91.10208454 49.83990118 97.82149508 54.88666422 104.5 60 C111.11938274 65.0666281 117.77503207 70.07435459 124.5 75 C132.12740017 80.5866242 139.65644565 86.29276338 147.1640625 92.0390625 C152.89902727 96.42064326 158.67759563 100.73542958 164.5 105 C171.22497458 109.92565028 177.88038993 114.93366232 184.5 120 C194.24542339 127.4553294 204.10033874 134.75129406 214 142 C224.80253607 149.90980675 235.53121949 157.90107083 246.16357422 166.03857422 C251.89860482 170.42045474 257.67752405 174.73513684 263.5 179 C272.14171707 185.33277816 280.6783774 191.79656268 289.1796875 198.31640625 C292.02126615 200.49546646 294.87291542 202.65600281 297.7578125 204.77734375 C329.94539757 228.56919229 347.99202558 264.34991209 354.56420898 303.34790039 C356.02859341 313.16103407 356.36136758 322.78214581 356.3125 332.6875 C356.31034485 333.47714142 356.3081897 334.26678284 356.30596924 335.08035278 C356.1381491 373.4786674 344.54190067 410.12569683 320 440 C319.54367187 440.55558594 319.08734375 441.11117188 318.6171875 441.68359375 C312.24166995 449.3081162 305.04324769 455.48442464 297.10791016 461.41748047 C294.76071513 463.17964379 292.43244625 464.96513511 290.10546875 466.75390625 C280.86812676 473.84467578 271.55947304 480.82886033 262.1652832 487.71020508 C256.22392687 492.07204964 250.35284197 496.52025878 244.5 501 C237.11440426 506.65290465 229.67032996 512.21433838 222.16625977 517.70874023 C216.20041389 522.08782606 210.31118241 526.56077261 204.4375 531.0625 C197.3110338 536.52195656 190.10808763 541.84714321 182.80615234 547.06884766 C176.06401342 551.90970043 169.47399729 556.93963711 162.88671875 561.98828125 C157.1365304 566.3894518 151.34246346 570.72220925 145.5 575 C138.77494119 579.92552389 132.11946776 584.93348655 125.5 590 C118.11358208 595.65353395 110.66805534 601.21470194 103.1640625 606.7109375 C97.22326928 611.07278235 91.35303899 615.5212741 85.5 620 C49.10849016 647.78841894 10.18537322 674.99214285 -38.10058594 669.77294922 C-50.88189121 667.93267494 -61.85119566 662.8306422 -72 655 C-73.03125 654.236875 -74.0625 653.47375 -75.125 652.6875 C-87.16051117 641.43691347 -94.73340782 626.4173712 -100 611 C-100.33427002 610.04287109 -100.33427002 610.04287109 -100.67529297 609.06640625 C-110.1553066 580.92588086 -109.78204919 548.1575013 -112.25 518.84912109 C-113.26503545 506.85956312 -114.37564825 494.92340612 -116 483 C-117.74593697 483.10338684 -117.74593697 483.10338684 -119.52714539 483.2088623 C-130.65441289 483.84509732 -141.75075711 484.18316256 -152.89453125 484.28125 C-154.56013372 484.2987906 -156.22573224 484.31670994 -157.8913269 484.3349762 C-161.39525808 484.37298155 -164.89920233 484.40893631 -168.40316772 484.44363403 C-173.87478387 484.49902748 -179.34619011 484.56773594 -184.81762695 484.63842773 C-215.35427442 485.02722776 -215.35427442 485.02722776 -230.15785217 485.00686646 C-235.18785102 485.00313522 -240.21749782 485.02682147 -245.24740601 485.05517578 C-247.52348312 485.06002172 -249.7996392 485.05063943 -252.07559204 485.02636719 C-255.18053291 484.99390661 -258.28180455 485.00898715 -261.38671875 485.03515625 C-262.7137532 485.00126549 -262.7137532 485.00126549 -264.06759644 484.96669006 C-267.84313405 485.04150076 -270.10525539 485.23770603 -273.03970337 487.73776245 C-274.81159416 489.75738884 -276.40196746 491.84215038 -278 494 C-288.26429287 504.79496907 -303.65994088 509.7924623 -318.25 510.1875 C-334.9619625 509.90084541 -349.06447061 503.62842874 -361.1875 492.25 C-362.46765952 490.8417552 -363.73746741 489.42406926 -365 488 C-365.6180249 487.36481445 -366.2360498 486.72962891 -366.87280273 486.07519531 C-374.18107592 477.00611801 -373.05528973 466.08505254 -372.91259766 454.98486328 C-372.87507841 451.50726772 -372.91232952 448.03599569 -372.95703125 444.55859375 C-373.00412702 423.30865533 -373.00412702 423.30865533 -365 415 C-364.21496094 414.01644531 -363.42992187 413.03289062 -362.62109375 412.01953125 C-350.60372524 399.87317488 -336.07426941 393.32455641 -318.9375 392.75 C-301.60460226 393.01046704 -287.08314928 399.74209443 -275 412 C-273.11661928 414.32189782 -273.11661928 414.32189782 -270.00550842 414.20254517 C-268.71341965 414.18033905 -267.42133087 414.15813293 -266.09008789 414.13525391 C-265.37386796 414.12580655 -264.65764803 414.1163592 -263.91972446 414.10662556 C-261.52045611 414.07271332 -259.12168194 414.02451201 -256.72265625 413.9765625 C-255.02462221 413.9500836 -253.32657245 413.92459601 -251.62850952 413.90003967 C-247.9990489 413.84603632 -244.36974533 413.786293 -240.740448 413.72225952 C-235.0596344 413.62296287 -229.37866285 413.54124227 -223.69750977 413.46411133 C-222.75498446 413.45127263 -221.81245916 413.43843393 -220.84137249 413.42520618 C-218.9349221 413.39929406 -217.02847087 413.37344345 -215.12201881 413.34765434 C-212.24976601 413.30848402 -209.37752894 413.26831294 -206.5052948 413.22779846 C-175.18370151 412.7862739 -175.18370151 412.7862739 -160.131073 412.71087646 C-157.70044984 412.69549316 -155.26986061 412.67262511 -152.83938599 412.6416626 C-124.35334531 412.28601419 -99.69026469 417.67922546 -78.23828125 437.796875 C-57.20965045 458.49521317 -50.25638664 485.69196929 -47 514 C-46.71139299 516.44642805 -46.42085695 518.8926238 -46.13043213 521.33883667 C-43.7564998 541.35501922 -41.47799986 561.38234066 -39.28320312 581.41894531 C-38.85958029 585.27975615 -38.42978756 589.13987103 -38 593 C-37.14664062 593.1134375 -36.29328125 593.226875 -35.4140625 593.34375 C-31.83270271 594.03215783 -28.75446415 595.13871702 -25.375 596.5 C-13.93437526 601.08691715 -1.57725615 601.97231824 10.109375 597.42578125 C15.86923477 594.58476934 20.90838628 590.86952667 26 587 C26.76489746 586.42137207 27.52979492 585.84274414 28.31787109 585.24658203 C32.75031395 581.88835677 37.16896879 578.51254293 41.58203125 575.12890625 C47.3964496 570.68173204 53.28367119 566.33836436 59.18603516 562.0090332 C64.14687966 558.36910827 69.08427639 554.70061473 74 551 C79.69972739 546.70917798 85.43500053 542.46976112 91.1875 538.25 C98.91563489 532.57681778 106.55002954 526.78860854 114.1628418 520.96191406 C120.66539815 515.99377647 127.23429756 511.12437737 133.8359375 506.2890625 C139.77671433 501.92722968 145.6475326 497.47945452 151.5 493 C158.88641792 487.34646605 166.33194466 481.78529806 173.8359375 476.2890625 C179.77671433 471.92722968 185.6475326 467.47945452 191.5 463 C198.88641792 457.34646605 206.33194466 451.78529806 213.8359375 446.2890625 C220.67048908 441.27100303 227.41084104 436.1346563 234.13989258 430.97631836 C239.28942537 427.03731542 244.48126716 423.16747738 249.72509766 419.35498047 C272.98828415 402.42078305 287.11313255 383.12272064 293.25 354.8125 C297.9975145 324.45579674 293.04101023 293.49073751 274.8359375 268.30859375 C274.23007812 267.54675781 273.62421875 266.78492188 273 266 C272.59499268 265.47607666 272.18998535 264.95215332 271.77270508 264.41235352 C267.74704343 259.42413917 263.11135081 255.80488665 257.9375 252.0625 C256.14514787 250.74311818 254.3535039 249.4227739 252.5625 248.1015625 C251.64339844 247.42641602 250.72429688 246.75126953 249.77734375 246.05566406 C245.29089244 242.73499599 240.86680578 239.33378202 236.4375 235.9375 C229.07159038 230.30562423 221.64394363 224.76778147 214.16381836 219.28881836 C207.32156327 214.26529165 200.57629671 209.11998077 193.8359375 203.9609375 C188.10097273 199.57935674 182.32240437 195.26457042 176.5 191 C169.77502542 186.07434972 163.11961007 181.06633768 156.5 176 C146.75457661 168.5446706 136.89966126 161.24870594 127 154 C116.19746393 146.09019325 105.46878051 138.09892917 94.83642578 129.96142578 C89.10139884 125.57954805 83.32258859 121.26470535 77.5 117 C70.77502178 112.07434706 64.11973149 107.06618298 57.5 102 C26.2480353 74.84769647 26.2480353 74.84769647 -12 65 C-15.36830399 65.53450515 -18.68291695 66.20954617 -22 67 C-22.70251428 69.30978181 -23.39619948 71.62152654 -24.078125 73.9375 C-24.68300899 75.94694512 -25.3175928 77.94773724 -25.984375 79.9375 C-28.29974642 87.20420415 -29.55690268 94.27673766 -30.45141602 101.83374023 C-30.57843431 102.87921996 -30.70545259 103.92469969 -30.83631992 105.00186062 C-32.15268787 115.99030205 -33.29684317 126.99632404 -34.4172802 138.00618172 C-34.917569 142.90950065 -35.42729423 147.81182681 -35.93629551 152.7142477 C-36.87727042 161.77803752 -37.81454831 170.84217007 -38.73608398 179.90795898 C-39.38396625 186.27801921 -40.04372125 192.64675559 -40.71112251 199.01479912 C-40.96061151 201.4162396 -41.20581953 203.81812929 -41.44642448 206.22047615 C-43.01675969 221.87660297 -44.59609842 237.24294347 -51.625 251.5625 C-51.96273438 252.2630249 -52.30046875 252.9635498 -52.6484375 253.68530273 C-62.25214933 272.91229918 -77.57844984 288.53138989 -98 296 C-119.62709321 303.01869362 -143.88028021 303.42413207 -166 298 C-166.91604004 297.77957031 -167.83208008 297.55914062 -168.77587891 297.33203125 C-215.83737787 285.72593332 -215.83737787 285.72593332 -224.375 273.0625 C-225.26143485 271.78535608 -226.1495487 270.50937639 -227.0390625 269.234375 C-227.51504883 268.54923828 -227.99103516 267.86410156 -228.48144531 267.15820312 C-231.17484542 263.330284 -233.96542782 259.57433877 -236.75 255.8125 C-237.95313567 254.18360163 -239.15626055 252.55469529 -240.359375 250.92578125 C-240.96201172 250.11061035 -241.56464844 249.29543945 -242.18554688 248.45556641 C-245.12794685 244.47350788 -248.0637044 240.48656062 -251 236.5 C-252.16663334 234.91664211 -253.33330004 233.3333088 -254.5 231.75 C-261.5 222.25 -268.5 212.75 -275.5 203.25 C-276.07806396 202.4655249 -276.65612793 201.6810498 -277.25170898 200.87280273 C-278.41283465 199.29690826 -279.57380589 197.7209 -280.73461914 196.14477539 C-283.73477651 192.07165825 -286.73797347 188.00083442 -289.74609375 183.93359375 C-301.61030528 167.88192197 -301.61030528 167.88192197 -307 160 C-310.76478859 161.25492953 -311.69380667 162.83097519 -314.125 165.9375 C-317.15073542 169.7319093 -320.22397726 173.41936462 -323.5 177 C-326.52282421 180.31989486 -329.42512161 183.69764112 -332.25 187.1875 C-335.85470085 191.63852192 -339.55370267 195.99198605 -343.3125 200.3125 C-343.86357422 200.94599365 -344.41464844 201.5794873 -344.98242188 202.23217773 C-346.10162485 203.51831655 -347.22092837 204.80436788 -348.34033203 206.09033203 C-350.9866048 209.13521959 -353.62143284 212.18982025 -356.25 215.25 C-356.74064941 215.82097412 -357.23129883 216.39194824 -357.73681641 216.98022461 C-361.70016934 221.61078852 -365.54857554 226.32560617 -369.35546875 231.0859375 C-369.89816406 231.71757812 -370.44085938 232.34921875 -371 233 C-371.33 233 -371.66 233 -372 233 C-372.25803686 218.63929873 -372.45072237 204.27896161 -372.56993389 189.91641045 C-372.62717235 183.24591031 -372.7047122 176.57739259 -372.82983398 169.90771484 C-372.94997764 163.46254389 -373.01525562 157.01887109 -373.04364967 150.57266617 C-373.06386479 148.12225909 -373.10334155 145.67192756 -373.16303062 143.22216415 C-373.6993714 120.28253122 -373.6993714 120.28253122 -365.25389385 111.18069267 C-363.84894918 109.77400316 -362.42471489 108.38666231 -361 107 C-359.42800013 105.06632762 -357.97261681 103.07508553 -356.5 101.0625 C-347.73852029 90.49901383 -335.42807761 85.65894665 -322 84 C-307.70589942 83.29951078 -293.9451285 83.77596034 -280 87 C-279.0409375 87.13535156 -278.081875 87.27070312 -277.09375 87.41015625 C-269.16112141 88.86691983 -265.75591115 94.7560993 -261.421875 100.99902344 C-258.82252401 104.65703867 -256.02169657 108.15946948 -253.25 111.6875 C-252.05140021 113.22603055 -250.85349146 114.7650997 -249.65625 116.3046875 C-248.43754325 117.86982534 -247.21879307 119.43492937 -246 121 C-238.85120171 130.17988011 -231.71004717 139.36454382 -224.625 148.59375 C-221.43372025 152.74241368 -218.215787 156.87032481 -215 161 C-210.98534375 166.15557352 -206.97898977 171.31684228 -203 176.5 C-196.70570383 184.69698374 -190.34986678 192.84603994 -184 201 C-170.60256902 218.20384394 -170.60256902 218.20384394 -165 225.5 C-164.2265625 226.50417969 -163.453125 227.50835937 -162.65625 228.54296875 C-161.18105856 230.45921469 -159.7112033 232.37924666 -158.24609375 234.30322266 C-156.33626967 236.81060206 -154.41852527 239.3117746 -152.5 241.8125 C-151.88769531 242.62074219 -151.27539062 243.42898438 -150.64453125 244.26171875 C-150.07089844 245.00679687 -149.49726563 245.751875 -148.90625 246.51953125 C-148.39384766 247.19089111 -147.88144531 247.86225098 -147.35351562 248.55395508 C-146.90685547 249.0311499 -146.46019531 249.50834473 -146 250 C-142.59943571 250 -140.71050903 247.49733729 -138.27734375 245.29296875 C-116.60232459 223.4692359 -113.23694031 195.1464378 -111.55329895 165.89648819 C-111.33959627 162.18568581 -111.11860967 158.47537671 -110.89587402 154.7651062 C-110.46406929 147.55220364 -110.03968916 140.33887962 -109.61717987 133.12542725 C-109.04302659 123.32381328 -108.46492593 113.52245315 -107.87715149 103.72164536 C-107.66131209 100.09291714 -107.45176016 96.46386304 -107.24255371 92.83474731 C-105.62533278 65.40072226 -103.2178384 39.37454972 -84 18 C-83.47019531 17.37738281 -82.94039063 16.75476563 -82.39453125 16.11328125 C-62.25083644 -6.01991428 -27.09058697 -6.88936743 0 0 Z " fill="#0088E4" transform="translate(372,15)"/>
<path d="M0 0 C9.16378544 3.03708368 14.56424954 12.85701252 19.8125 20.5 C20.41070557 21.36294678 21.00891113 22.22589355 21.62524414 23.11499023 C26.8486791 30.69067294 31.87962179 38.38168973 36.81005859 46.15039062 C37.93869562 47.90471031 39.09615036 49.63475871 40.26953125 51.359375 C40.92308594 52.33390625 41.57664063 53.3084375 42.25 54.3125 C42.81203125 55.13363281 43.3740625 55.95476562 43.953125 56.80078125 C45.23045237 59.48412195 44.95201642 60.25144176 44 63 C42.2820441 65.21088382 40.54724016 67.29050383 38.6875 69.375 C37.59100068 70.62877932 36.49465074 71.88268929 35.3984375 73.13671875 C34.55297363 74.09650635 34.55297363 74.09650635 33.69042969 75.07568359 C31.04041208 78.09235586 28.42540659 81.13868659 25.8125 84.1875 C25.06299072 85.05979248 25.06299072 85.05979248 24.29833984 85.94970703 C21.24929915 89.50775616 18.26233543 93.10879689 15.3125 96.75 C12.46541499 100.2588399 9.54187448 103.65866637 6.5 107 C2.64986163 111.22982329 -0.98407435 115.59718886 -4.5859375 120.0390625 C-7.36318101 123.44545502 -10.17216745 126.82306898 -13 130.1875 C-13.48130371 130.7647583 -13.96260742 131.3420166 -14.45849609 131.93676758 C-15.6165006 133.31046242 -16.80530051 134.65809647 -18 136 C-18.33 136 -18.66 136 -19 136 C-19.25803686 121.63929873 -19.45072237 107.27896161 -19.56993389 92.91641045 C-19.62717235 86.24591031 -19.7047122 79.57739259 -19.82983398 72.90771484 C-19.94997764 66.46254389 -20.01525562 60.01887109 -20.04364967 53.57266617 C-20.06386479 51.12225909 -20.10334155 48.67192756 -20.16303062 46.22216415 C-20.69901451 23.29779552 -20.69901451 23.29779552 -12.27037334 14.17519951 C-10.86475211 12.76545407 -9.43265559 11.38226308 -8 10 C-6.37378608 8.08440166 -4.84902807 6.11514151 -3.3125 4.125 C-2.20898532 2.74947669 -1.10509978 1.37425016 0 0 Z " fill="#006AC8" transform="translate(19,112)"/>
</svg>
